# xmcd CD database file
#
# Track frame offsets:
#	182
#	14440
#	39890
#	53052
#	67645
#	85817
#	100355
#	120322
#	130330
#	146040
#	155685
#	172735
#	187792
#	205877
#	223412
#	238960
#
# Disc length: 3387 seconds
#
# Revision: 0
# Processed by: cddbd v1.5.1PL2 Copyright (c) Steve Scherf et al.
# Submitted via: CDex 1.51
#
DISCID=d80d3910
DTITLE=Various Artist - Country and Trucker Starparade
DYEAR=1900
DGENRE=Country
TTITLE0=Take Ir Easy - Tom Astor
TTITLE1=Ich Stell Mir Vor Berlin Ist In Nashville - Western Union
TTITLE2=Mein Bester Freund - Jonny Hill
TTITLE3=Sixteen Tons - Jeff Turner
TTITLE4=Zum Ersten Mal In Meinem Leben - Anne Karin
TTITLE5=Ich Trinke Keinen Tropfen Mehr - Eddi Toledo
TTITLE6=Maedchen Ab 30 - Gunter Gabriel
TTITLE7=Adios Amigos - Nasville Music Company
TTITLE8=Alles Bingo - Tuck Stop
TTITLE9=Trucker Lady Aus Berlin - Tennessee Ernest G.
TTITLE10=Ich Hab Noch Viel Vor In Meinem Leben - Graham Boney
TTITLE11=Ein Herz für Cowboys - Ralf Paulsen
TTITLE12=Jeder Tut Was Er Kann - Bernd Clüver
TTITLE13=Ich Wollte Auf Nen Echten Zug - West Forest
TTITLE14=Please Releas Me - Trucker Bill
TTITLE15=Medley - Peter Hinnen
EXTD=
EXTT0=
EXTT1=
EXTT2=
EXTT3=
EXTT4=
EXTT5=
EXTT6=
EXTT7=
EXTT8=
EXTT9=
EXTT10=
EXTT11=
EXTT12=
EXTT13=
EXTT14=
EXTT15=
PLAYORDER=
